<svg version="1.1" xmlns="http://www.w3.org/2000/svg" viewBox="0 0 443.50716995103767 408.0949263664619" width="443.50716995103767" height="408.0949263664619">
  <!-- svg-source:excalidraw -->
  
  <defs>
    <style>
      @font-face {
        font-family: "Virgil";
        src: url("https://excalidraw.com/FG_Virgil.woff2");
      }
      @font-face {
        font-family: "Cascadia";
        src: url("https://excalidraw.com/Cascadia.woff2");
      }
    </style>
  </defs>
  <g><g stroke-opacity="0.5" fill-opacity="0.5" transform="translate(87.2065017623504 156.70741493666537) rotate(0 0.6052415714495964 74.85115145711065)" fill-rule="evenodd"><path d="M-2.665428228676319 1.1139735653996468 L71.22609386289798 39.55879035874192 L71.73892102087223 108.77443393421117 L-1.0153744891285896 151.92983727540496 L-74.38741444493013 109.40719636630956 L-75.54813312435823 37.8199206916887 L-3.8468957617878914 2.4946827366948128" stroke="none" stroke-width="0" fill="#db5757" fill-rule="evenodd"></path><path d="M-2.884936638176441 -2.7764614149928093 C20.877823176451315 5.99621327747127, 39.24775186650278 18.639653841543595, 71.89892372930728 37.729271802147075 M78.4169849052497 39.06029571874921 C72.20924257894366 56.92452724088176, 72.76960038801043 65.68444205158852, 71.55289231682502 112.98286087167207 M74.0989225848981 108.40993102741186 C47.813982966366645 119.83294379164481, 26.726550994335085 135.86423593918855, -1.1509054377675056 145.71541552628997 M1.6938411667943 152.47876432921413 C-21.04423192195359 138.5122034350561, -45.57807726170129 128.8430931124806, -73.00132367456632 113.39477259767 M-77.01916908169466 111.97912510585729 C-78.13526466151816 82.7730818894307, -73.9737024571572 56.9349051891174, -75.36822270298677 34.275870713432475 M-72.26965138757902 37.41183676107709 C-48.568610215668365 26.043517582260563, -28.088494758163705 14.038571285134765, -0.23398428410291672 1.3446220681071281 M0 0 C0 0, 0 0, 0 0" stroke="#c92a2a" stroke-width="4.5" fill="none" stroke-dasharray="12 8"></path></g></g><g><g stroke-opacity="0.5" fill-opacity="0.5" transform="translate(256.89386362724827 160.0252447910891) rotate(0 -0.3962924409709103 75.27516021771193)" fill-rule="evenodd"><path d="M1.1139735653996468 -3.3820245936512947 L76.8989583149023 34.398753064711705 L71.57870088959407 110.78847701203783 L2.858035273849964 149.2925060131741 L-77.00477359140596 110.86383683335741 L-74.05614826524935 33.421054738600866 L2.4946827366948128 -3.1696170046925545" stroke="none" stroke-width="0" fill="#8fc1ef" fill-rule="evenodd"></path><path d="M-2.7764614149928093 1.4310368821024895 C23.681227864719673 14.497122816528334, 52.297146480712584 23.871707239199864, 75.06943975830745 33.70850767477335 M76.40046367490959 35.563985976417676 C78.60751694536654 55.01055731754502, 71.63931840754 71.98515142478566, 75.78712782705497 111.7651751871105 M71.21419798279476 107.86866290223558 C54.415264661895506 117.33870906321964, 42.41159194141599 127.33726033607658, -3.356386475265026 148.9402544834805 M3.40696232765913 150.55032043542388 C-24.14759425812797 135.67664597865448, -49.00183082977179 125.0929216040295, -73.01719736004553 115.15610083293875 M-74.43284485185823 108.43602354180773 C-76.35903127221478 89.44022421788412, -73.58986456422222 64.72902419815975, -77.60019824350557 38.58455433233561 M-74.46423219586096 38.80164018555464 C-47.940464544142074 20.72910671115101, -21.829188391557146 10.477349299553008, 1.3446220681071281 2.2518495991826057 M0 0 C0 0, 0 0, 0 0" stroke="#1864ab" stroke-width="4.5" fill="none" stroke-dasharray="12 8"></path></g></g><g><g stroke-opacity="0.5" fill-opacity="0.5" transform="translate(176.61009482105646 34.90093993971141) rotate(0 -1.703252136707306 74.36144649801614)" fill-rule="evenodd"><path d="M-3.3820245936512947 2.290839858353138 L71.73892102087223 34.238532933433696 L73.59274396742069 114.66188677501623 L0.22070401161909103 146.6751468666983 L-75.54813312435823 112.35582169246618 L-78.45501421833711 39.7626332370836 L-3.1696170046925545 -0.5824335142970085" stroke="none" stroke-width="0" fill="#74bb92" fill-rule="evenodd"></path><path d="M1.4310368821024895 -2.4186640307307243 C28.22372731375366 15.736342792124677, 52.93869308499564 29.56259464851925, 71.04867563093387 35.403315219124 M72.9041539325782 41.19641389234845 C74.88399820437256 56.9436611390437, 72.97237877955261 83.87785143993815, 74.56944214249336 108.85949570786897 M70.67292985761844 108.31499251079504 C47.550471253987226 124.04934716643596, 24.861450465378724 131.40836109813006, -0.13154751807451248 151.141557026763 M1.478518433868885 150.63512328650478 C-18.290832864289612 144.7745515302527, -32.82273262441177 134.89322000547986, -71.2558691247769 112.2313454831833 M-77.97594641590791 111.38042529773656 C-72.91583505802843 85.15138864431681, -74.46967354946825 50.815364991385344, -73.29151462460237 39.05152240677659 M-73.07442877138334 38.002743142684146 C-57.72498480826792 28.28931024788117, -34.99135854792336 18.43514816693592, 2.2518495991826057 3.03200214356184 M0 0 C0 0, 0 0, 0 0" stroke="#004d00" stroke-width="4.5" fill="none" stroke-dasharray="12 8"></path></g></g><g><g stroke-opacity="0.5" fill-opacity="0.5" transform="translate(336.3246043338854 116.73343837509219) rotate(0 7.078637050814223 -7.035490157028434)" fill-rule="evenodd"><path d="M7.6169583149023685 -82.86919743567705 L76.90481934614341 -43.747423988739804 L82.79227218694847 32.024555512785355 L2.9294633216925297 68.13178733374598 L-68.73002980870008 27.95695573937837 L-66.78731726330518 -45.90166650430377 L4.743684942252222 -82.648168630898" stroke="none" stroke-width="0" fill="#ffe066" fill-rule="evenodd"></path><path d="M2.907454425818506 -79.33142740279436 C22.478036212990027 -74.75053631891126, 39.272960977300784 -67.10829116287599, 78.06960163183372 -42.541711431900815 M83.86270030505817 -43.87565621451552 C77.56247209600627 -16.329073025464275, 81.78121661237896 16.145679414075254, 76.98988111980121 32.80535324764196 M76.44537792272727 29.09152729165498 C59.26721540378669 39.89092896433345, 33.08006435830006 51.61625487065061, 7.395873481757227 66.21662381674768 M6.88943974149901 68.15354781236174 C-17.898493705114554 58.471609306702405, -44.801399158734455 47.45852898738495, -68.85450601798296 35.3658574457163 M-69.7054262034297 32.597585746168534 C-67.00158037567364 13.17572272208804, -72.3394006671928 -2.6155937321682323, -67.49842809361219 -43.93255625383075 M-68.54720735770464 -45.55641326026137 C-41.42775083480197 -56.89729431669225, -14.475887183744995 -67.77059245785264, 8.358120600111071 -82.22452812641859 M5.3261184565492306 -80 C5.3261184565492306 -80, 5.3261184565492306 -80, 5.3261184565492306 -80" stroke="#e6b800" stroke-width="4.5" fill="none" stroke-dasharray="12 8"></path></g></g><g><g transform="translate(103.56671257817743 139.5366138787385) rotate(0 -0.07156054861843586 75.17526125727059)" fill-rule="evenodd"><path d="M-1.781940035521984 -0.0274546816945076 L77.34317838097297 37.34556235655133 L77.01002727890693 110.34461552751009 L1.2203156426548958 150.92818859602932 L-72.9708165868588 114.00240332734529 L-76.31291696871 40.938969987471744 L3.781660981476307 0.5572368428111076" stroke="none" stroke-width="0" fill="#db5757" fill-rule="evenodd"></path><path d="M1.0790564343333244 -0.8668582960963249 C30.548860626611962 10.340251537200391, 53.14362898547077 25.899011677445024, 76.08911309087955 38.35994425698106 M-1.0183897279202938 1.3094435594975948 C22.1926583467958 10.543501559159457, 41.870475045396304 23.52839217694606, 74.33267022738539 37.10648053049032 M74.39751038397037 39.005679043968364 C76.57793069471016 68.62031028284943, 71.58582926381722 91.52541545971877, 70.98590335691654 111.85877712917272 M74.87956716189467 36.36840622781698 C73.39902870454578 66.57428195083469, 75.60207061567097 94.148287404077, 74.10282863745772 112.95899413254801 M74.67790660703861 112.54766377162878 C53.284588242140465 118.90603235755916, 27.802213839050495 133.67995383232036, -1.420256681740284 151.86151771630767 M76.46915306220137 109.8053009333903 C55.6720756861632 122.20789298438673, 35.81718602467135 131.55634137889734, 0.6208904720842838 148.0757799820197 M-0.061444349586963654 151.09160308923248 C-24.84925261130188 139.5167073738877, -52.5771236868856 125.9266828560509, -72.51075052166658 113.85143622112219 M0.21191582456231117 150.4605694488776 C-19.163910032682534 140.52341630772077, -42.18311069667516 130.00036248162903, -76.22707171062308 111.31132410195414 M-74.88942598248201 108.80826719951574 C-74.22885204048625 86.03273962493886, -76.38459635467997 55.22908247272525, -76.61227415943819 38.668016347129985 M-75.66232199291068 112.34494779732768 C-74.67663915925343 90.34184077277027, -72.1580721931966 72.37593086124997, -74.7698291025527 35.33335726617758 M-75.82023428822237 39.22463980599229 C-51.79868312196491 30.408657312759097, -34.418679470106845 18.604788518086497, 3.1450454518198967 -1.510995201766491 M-74.13858158210593 38.28241675256674 C-53.80756177367059 26.43275634614522, -33.64370275688147 16.105055198862527, -0.5341151021420956 1.7299044989049435 M0 0 C0 0, 0 0, 0 0 M0 0 C0 0, 0 0, 0 0" stroke="#c92a2a" stroke-width="4" fill="none"></path></g></g><g transform="translate(31.45410745540903 197.28091001072673) rotate(0 72 16.5)"><text x="72" y="22" font-family="Virgil, Segoe UI Emoji" font-size="25.70404240888429px" fill="#ffff" text-anchor="middle" style="white-space: pre;" direction="ltr">Plataforma</text></g><g><g transform="translate(270.04633872765316 139.240670202342) rotate(0 0.8173140103906462 74.9060561638868)" fill-rule="evenodd"><path d="M2.7350599244236946 0.07761185616254807 L77.01002727890682 35.80871452673258 L75.82843409920406 113.66023809564074 L1.6373018696904182 151.27035382773403 L-76.31291696871004 115.47487098824938 L-70.82645747507296 37.825187343199865 L2.379639334976673 3.570338658988476" stroke="none" stroke-width="0" fill="#8fc1ef" fill-rule="evenodd"></path><path d="M3.883189134299755 -2.57729821652174 C25.26804791038762 12.60002779445214, 53.340438788015405 27.219552067463315, 74.23874292219352 39.14153161927046 M0.1500605084002018 -0.4291990138590336 C19.454993812040364 11.582061976050694, 42.74526835343955 20.540698820051652, 76.2912014878757 37.368955663432494 M76.5026455863781 39.987034472664014 C71.43205484324662 55.204291608789, 70.90741404467789 79.21373166727727, 77.92310795629692 113.6619938249584 M72.7065371430881 38.03636842130603 C75.11190579249741 56.42964209326484, 74.30515537574173 77.13745662826076, 74.49807788500857 112.03542266514857 M75.17022595251274 109.2947891588207 C56.11082296987397 121.14430153311619, 42.076921234744674 130.41794848797946, -1.6327331736683846 151.4087758549643 M74.57366134295535 112.52452121403773 C52.24595189812867 121.96355078858437, 30.91568633385411 131.79841216212594, 1.021095011383295 150.3490964845908 M1.8183032795786858 152.38941054429534 C-23.140958876528114 140.93009911182511, -44.75993258145537 128.46116296392762, -75.64610146427832 111.32608541202505 M1.1934497095644474 150.0827323869956 C-27.110684554114655 137.99535293694746, -53.00261688294924 123.98789475962698, -73.39820582488856 111.49649439480861 M-74.457943429 112.90260633182486 C-76.50885019367522 88.2287579369125, -76.50743660991972 71.72380144873843, -76.02963041210852 35.46434369965376 M-75.34880644897304 110.05376921322902 C-72.04447937870714 85.53310941493962, -73.98406899834367 57.335901612499825, -75.35812706569514 37.60237841962756 M-71.25864766979895 39.572297724922315 C-53.95084485577226 27.18739323608481, -32.66414208599902 15.759166519586234, -1.2493844702839851 2.9622349217534065 M-73.30765957454524 35.7186437165636 C-54.64067078796556 25.294370353063883, -37.856827403068145 19.528914379477914, 0.2200666405260563 -1.1631951667368412 M0 0 C0 0, 0 0, 0 0 M0 0 C0 0, 0 0, 0 0" stroke="#1864ab" stroke-width="4" fill="none"></path></g></g><g transform="translate(216.14146932030235 192.17061518276816) rotate(0 57 16.5)"><text x="57" y="22" font-family="Virgil, Segoe UI Emoji" font-size="25.704042408884302px" fill="#ffff" text-anchor="middle" style="white-space: pre;" direction="ltr">Personas</text></g><g><g transform="translate(185.66769145383932 90.62543802708387) rotate(0 4.616139786627855 -3.9157834071123574)" fill-rule="evenodd"><path d="M7.728027278906885 -81.45923597365618 L81.1545525557534 -40.8756629051369 L81.57153878278892 34.00240332734529 L3.6213199443884525 72.74282148863794 L-65.50033901852369 32.36108834397737 L-66.90236066502332 -39.16171084062274 L5.143526489264551 -77.89685279875994" stroke="none" stroke-width="0" fill="#74bb92" fill-rule="evenodd"></path><path d="M4.563908735639635 -80.62543802708387 C28.296274469043016 -67.57383504185479, 47.21147317631696 -56.41951333119296, 79.56842645175617 -44.7688289554518 M3.4605204671390686 -78.28054681792855 C32.37378625029945 -66.22085362318708, 61.59950905771276 -52.337979452207776, 79.55446219734709 -42.83735353590067 M76.83666261203449 -45.741136160652 C77.01807324642684 -17.078274504109697, 83.95527784580733 10.323791559170886, 78.32234867580097 32.34674891185705 M80.23569751076262 -42.92753965498026 C78.01158632875632 -22.568553710307633, 78.40683557630729 -4.483772019785398, 78.10589349560301 31.838745576410926 M76.98590954311054 33.0933748121256 C54.84892681646822 45.53097923570204, 30.866653937972785 56.951631496404744, 5.390996376401964 72.79387121285917 M79.38194692425292 32.213799935846964 C65.61525526328165 38.801798563187155, 51.08842914071752 48.53140603425496, 5.6081090777881775 69.0410798267615 M5.6080850757427845 71.88247709359648 C-19.06511029882577 59.294758053235554, -48.35023574860494 43.70717592011676, -67.52888894301653 32.227683150290886 M3.946754059172455 69.77297622721316 C-24.300710892419133 55.565299767540495, -49.03494685457157 41.98225908610968, -69.7168809979856 31.663197738199866 M-71.28756928664446 28.968815886496937 C-71.34212285781997 16.42511142135688, -70.75947911049026 -3.557367152669894, -67.18587827903032 -44.840456572334126 M-67.50412102636695 31.79978774216715 C-68.89163217724585 5.49193296859309, -69.47993014038825 -16.61637117631886, -70.11191042360663 -43.33810741544779 M-68.137124540627 -42.44875010565932 C-40.72903588125264 -58.106089909606226, -19.091407579013527 -66.63628994084975, 3.3680264152355823 -79.06092625111341 M-67.8697620242536 -44.59272224546488 C-44.133963021967276 -52.91697541381542, -17.212974826701135 -68.880814133098, 4.732224902487579 -79.83574810996652 M5.3261184565492306 -80 C5.3261184565492306 -80, 5.3261184565492306 -80, 5.3261184565492306 -80 M5.3261184565492306 -80 C5.3261184565492306 -80, 5.3261184565492306 -80, 5.3261184565492306 -80" stroke="#004d00" stroke-width="4" fill="none"></path></g></g><g transform="translate(128.52887467199616 66.72206427469291) rotate(0 64 16.5)"><text x="64" y="22" font-family="Virgil, Segoe UI Emoji" font-size="25.7040424088843px" fill="#ffff" text-anchor="middle" style="white-space: pre;" direction="ltr">Paradigma</text></g><g><g transform="translate(350.95404591894385 91.96648347101151) rotate(0 5.633484164602351 -5.124650113230345)" fill-rule="evenodd"><path d="M6.546434099204126 -78.14361340552568 L81.57153878278892 -40.53349767343219 L78.22943840093772 35.47487098824922 L9.107779438025538 69.6290388443661 L-66.90236066502332 35.37419016015474 L-69.46459196728468 -40.62890229837115 L6.34466951561648 -81.52182776480913" stroke="none" stroke-width="0" fill="#ffe066" fill-rule="evenodd"></path><path d="M6.807113090879503 -78.90800624340773 C22.389964222506826 -69.11398551789395, 39.96878056658223 -64.24522650145143, 82.55312403209369 -42.43192848281081 M5.050670227385345 -80.16146996989846 C27.095280346239477 -70.8012297338901, 45.813771592754875 -60.62692216327236, 80.80310118488829 -41.78478593469675 M76.31202181346576 -42.677123871604756 C82.09482395561295 -13.446402531328257, 77.16794621856766 12.665857200061524, 78.1351483679549 28.00068887424413 M79.42894709400694 -41.576906868229464 C80.0488927141892 -17.275971931360164, 78.3305898682343 7.751857384171245, 80.30614304832976 32.08490524914805 M78.51398023135822 34.59356721591894 C60.04958812136197 43.46456476495161, 44.044674189233206 53.692354993539894, 1.329017320997301 69.00288777436735 M80.55512738518279 30.807829481630957 C55.678678662557914 45.9102801073969, 29.86874817015127 57.1255427590051, 6.33601900038797 69.98095364134433 M7.423486391431871 71.1193867215109 C-24.334854956909712 55.37113488958367, -50.11420970789274 42.0013357039702, -66.50446510535478 34.19075092029516 M3.7071652024753723 68.57927460234286 C-19.103524305334293 56.223427463749466, -46.90193416935918 43.32598047882733, -70.77979215082526 31.878939014940894 M-71.28615570288896 33.20391734790746 C-69.95607738656159 5.592057368145941, -66.43844371003266 -19.120930236127297, -68.19980740767717 -44.21342548445876 M-69.44371064600348 29.869258266955054 C-71.35716672084665 16.299707128017644, -71.4370685353074 -0.4793509994451597, -68.30365534719824 -41.057314106236056 M-66.1369545481801 -44.243044701377706 C-44.064209475738835 -53.20283935917822, -18.092406242478226 -68.5533431396523, 7.355050960905138 -77.39908223599195 M-69.81611510214209 -41.00214500070627 C-52.98535317491617 -50.80044246367384, -37.19642103519725 -57.766406130544524, 5.929102262831512 -81.36868694797158 M5.3261184565492306 -80 C5.3261184565492306 -80, 5.3261184565492306 -80, 5.3261184565492306 -80 M5.3261184565492306 -80 C5.3261184565492306 -80, 5.3261184565492306 -80, 5.3261184565492306 -80" stroke="#e6b800" stroke-width="4" fill="none"></path></g></g><g transform="translate(290.7933936418458 69.76052573800632) rotate(0 68 19)"><text x="68" y="26" font-family="Virgil, Segoe UI Emoji" font-size="29.550196255037953px" fill="#000" text-anchor="middle" style="white-space: pre;" direction="ltr">Prácticas</text></g><g stroke-opacity="0.4" fill-opacity="0.4" transform="translate(73.74658488490877 314.0949263664619) rotate(0 111.5 42)"><text x="111.5" y="59" font-family="Virgil, Segoe UI Emoji" font-size="66.36363636363632px" fill="#000000" text-anchor="middle" style="white-space: pre;" direction="ltr">Pilares</text></g><g transform="translate(71.7049182182418 307.5027546492903) rotate(0 111.5 42)"><text x="111.5" y="59" font-family="Virgil, Segoe UI Emoji" font-size="66.36363636363632px" fill="#000000" text-anchor="middle" style="white-space: pre;" direction="ltr">Pilares</text></g></svg>