<svg version="1.1" xmlns="http://www.w3.org/2000/svg" viewBox="0 0 169.21623691309856 169.071802001555" width="507.64871073929567" height="507.215406004665">
  <!-- svg-source:excalidraw -->
  
  <defs>
    <style>
      @font-face {
        font-family: "Virgil";
        src: url("https://excalidraw.com/FG_Virgil.woff2");
      }
      @font-face {
        font-family: "Cascadia";
        src: url("https://excalidraw.com/Cascadia.woff2");
      }
    </style>
  </defs>
  <g><g transform="translate(84.60811845654925 10) rotate(0 2.842170943040401e-14 74.5359010007775)" fill-rule="evenodd"><path d="M0 0 L74.60811845654928 37.267950500388785 L74.60811845654928 111.80385150116626 L0 149.071802001555 L-74.60811845654922 111.80385150116626 L-74.60811845654922 37.267950500388785 L0 0" stroke="none" stroke-width="0" fill="#ffe066" fill-rule="evenodd"></path><path d="M0 0 C18.829155583306566 9.405464884514712, 37.65831116661313 18.810929769029425, 74.60811845654928 37.267950500388785 M0 0 C29.75606123837547 14.863629324255776, 59.51212247675094 29.72725864851155, 74.60811845654928 37.267950500388785 M74.60811845654928 37.267950500388785 C74.60811845654928 61.04488724833995, 74.60811845654928 84.8218239962911, 74.60811845654928 111.80385150116626 M74.60811845654928 37.267950500388785 C74.60811845654928 65.21542186188813, 74.60811845654928 93.16289322338747, 74.60811845654928 111.80385150116626 M74.60811845654928 111.80385150116626 C49.3682148679674 124.41158772388938, 24.128311279385528 137.0193239466125, 0 149.071802001555 M74.60811845654928 111.80385150116626 C47.148869503147424 125.52018629078056, 19.689620549745577 139.23652108039485, 0 149.071802001555 M0 149.071802001555 C-15.060857522346607 141.54866237214446, -30.121715044693214 134.02552274273393, -74.60811845654922 111.80385150116626 M0 149.071802001555 C-16.855690960281848 140.6521143140351, -33.711381920563696 132.2324266265152, -74.60811845654922 111.80385150116626 M-74.60811845654922 111.80385150116626 C-74.60811845654922 91.20292004383273, -74.60811845654922 70.6019885864992, -74.60811845654922 37.267950500388785 M-74.60811845654922 111.80385150116626 C-74.60811845654922 96.82327213922272, -74.60811845654922 81.8426927772792, -74.60811845654922 37.267950500388785 M-74.60811845654922 37.267950500388785 C-54.5174991150723 27.232364258170794, -34.42687977359537 17.196778015952802, 0 0 M-74.60811845654922 37.267950500388785 C-57.10518983409683 28.524957230919274, -39.60226121164443 19.78196396144976, 0 0 M0 0 C0 0, 0 0, 0 0 M0 0 C0 0, 0 0, 0 0" stroke="#e6b800" stroke-width="4" fill="none"></path></g></g><g transform="translate(17.097843449397544 70.12687233115521) rotate(0 68.875 13.448964497041423)"><text x="68.875" y="19.89792899408284" font-family="Virgil, Segoe UI Emoji" font-size="20.95107598712314px" fill="#000" text-anchor="middle" style="white-space: pre;" direction="ltr">Administrador</text></g></svg>