<svg version="1.1" xmlns="http://www.w3.org/2000/svg" viewBox="0 0 169.21623691309856 169.071802001555" width="507.64871073929567" height="507.215406004665">
  <!-- svg-source:excalidraw -->
  
  <defs>
    <style>
      @font-face {
        font-family: "Virgil";
        src: url("https://excalidraw.com/FG_Virgil.woff2");
      }
      @font-face {
        font-family: "Cascadia";
        src: url("https://excalidraw.com/Cascadia.woff2");
      }
    </style>
  </defs>
  <g><g transform="translate(79.28200000000001 90.00000000000003) rotate(0 5.326118456549267 -5.464098999222529)" fill-rule="evenodd"><path d="M5.3261184565492306 -80 L79.9342369130985 -42.732049499611215 L79.9342369130985 31.80385150116626 L5.3261184565492306 69.07180200155499 L-69.282 31.80385150116626 L-69.282 -42.732049499611215 L5.3261184565492306 -80" stroke="none" stroke-width="0" fill="#74bb92" fill-rule="evenodd"></path><path d="M5.3261184565492306 -80 C25.731298332020316 -69.80728573133142, 46.1364782074914 -59.61457146266283, 79.9342369130985 -42.732049499611215 M5.3261184565492306 -80 C22.031023979310245 -71.65563205432532, 38.73592950207126 -63.31126410865066, 79.9342369130985 -42.732049499611215 M79.9342369130985 -42.732049499611215 C79.9342369130985 -22.32567880733415, 79.9342369130985 -1.9193081150570848, 79.9342369130985 31.80385150116626 M79.9342369130985 -42.732049499611215 C79.9342369130985 -15.41000191080935, 79.9342369130985 11.912045677992516, 79.9342369130985 31.80385150116626 M79.9342369130985 31.80385150116626 C51.249164258649614 46.1325048689448, 22.564091604200733 60.46115823672334, 5.3261184565492306 69.07180200155499 M79.9342369130985 31.80385150116626 C58.58316073714889 42.46905612656812, 37.23208456119927 53.134260751969975, 5.3261184565492306 69.07180200155499 M5.3261184565492306 69.07180200155499 C-18.92263768863946 56.959159806440624, -43.17139383382815 44.846517611326256, -69.282 31.80385150116626 M5.3261184565492306 69.07180200155499 C-18.07557772310764 57.38227983036517, -41.47727390276451 45.692757659175356, -69.282 31.80385150116626 M-69.282 31.80385150116626 C-69.282 2.5081534591661594, -69.282 -26.78754458283394, -69.282 -42.732049499611215 M-69.282 31.80385150116626 C-69.282 14.556237274307925, -69.282 -2.69137695255041, -69.282 -42.732049499611215 M-69.282 -42.732049499611215 C-52.118350382597214 -51.305567470311814, -34.95470076519444 -59.87908544101241, 5.3261184565492306 -80 M-69.282 -42.732049499611215 C-50.06190005485078 -52.332797356367664, -30.841800109701566 -61.93354521312411, 5.3261184565492306 -80 M5.3261184565492306 -80 C5.3261184565492306 -80, 5.3261184565492306 -80, 5.3261184565492306 -80 M5.3261184565492306 -80 C5.3261184565492306 -80, 5.3261184565492306 -80, 5.3261184565492306 -80" stroke="#004d00" stroke-width="4" fill="none"></path></g></g><g transform="translate(21.14318321815773 66.09662624760904) rotate(0 65 16.5)"><text x="65" y="22" font-family="Virgil, Segoe UI Emoji" font-size="25.7040424088843px" fill="#ffff" text-anchor="middle" style="white-space: pre;" direction="ltr">Arquitecto</text></g></svg>